<?xml version="1.0" encoding="UTF-8" standalone="no"?>
<!DOCTYPE svg PUBLIC "-//W3C//DTD SVG 1.1//EN"
 "http://www.w3.org/Graphics/SVG/1.1/DTD/svg11.dtd">
<!-- Generated by graphviz version 2.40.1 (20161225.0304)
 -->
<!-- Title: dependencies Pages: 1 -->
<svg width="504pt" height="284pt"
 viewBox="0.00 0.00 504.00 284.00" xmlns="http://www.w3.org/2000/svg" xmlns:xlink="http://www.w3.org/1999/xlink">
<g id="graph0" class="graph" transform="scale(1 1) rotate(0) translate(4 280)">
<title>dependencies</title>
<polygon fill="#ffffff" stroke="transparent" points="-4,4 -4,-280 500,-280 500,4 -4,4"/>
<text text-anchor="start" x="227.0091" y="-42.4" font-family="sans-serif" font-weight="bold" font-size="14.00" fill="#000000">Legend</text>
<polygon fill="#ffffb3" stroke="transparent" points="14,-10 14,-30 34,-30 34,-10 14,-10"/>
<text text-anchor="start" x="37.629" y="-15.4" font-family="sans-serif" font-size="14.00" fill="#000000"> &#160;Declarations</text>
<polygon fill="#8dd3c7" stroke="transparent" points="127,-10 127,-30 147,-30 147,-10 127,-10"/>
<text text-anchor="start" x="150.7251" y="-15.4" font-family="sans-serif" font-size="14.00" fill="#000000"> &#160;Module</text>
<polygon fill="#80b1d3" stroke="transparent" points="213,-10 213,-30 233,-30 233,-10 213,-10"/>
<text text-anchor="start" x="236.7812" y="-15.4" font-family="sans-serif" font-size="14.00" fill="#000000"> &#160;Bootstrap</text>
<polygon fill="#fdb462" stroke="transparent" points="310,-10 310,-30 330,-30 330,-10 310,-10"/>
<text text-anchor="start" x="333.6732" y="-15.4" font-family="sans-serif" font-size="14.00" fill="#000000"> &#160;Providers</text>
<polygon fill="#fb8072" stroke="transparent" points="406,-10 406,-30 426,-30 426,-10 406,-10"/>
<text text-anchor="start" x="429.7258" y="-15.4" font-family="sans-serif" font-size="14.00" fill="#000000"> &#160;Exports</text>
<g id="clust1" class="cluster">
<title>cluster_SharedModule</title>
<polygon fill="none" stroke="#000000" stroke-dasharray="1,5" points="104,-70 104,-268 392,-268 392,-70 104,-70"/>
</g>
<g id="clust2" class="cluster">
<title>cluster_SharedModule_declarations</title>
<polygon fill="none" stroke="#000000" points="116,-78 116,-130 381,-130 381,-78 116,-78"/>
</g>
<g id="clust6" class="cluster">
<title>cluster_SharedModule_exports</title>
<polygon fill="none" stroke="#000000" points="112,-208 112,-260 384,-260 384,-208 112,-208"/>
</g>
<!-- DropzoneComponent -->
<g id="node1" class="node">
<title>DropzoneComponent</title>
<polygon fill="#ffffb3" stroke="#000000" points="373.0296,-122 236.9704,-122 236.9704,-86 373.0296,-86 373.0296,-122"/>
<text text-anchor="middle" x="305" y="-99.8" font-family="Times,serif" font-size="14.00" fill="#000000">DropzoneComponent</text>
</g>
<!-- SharedModule -->
<g id="node3" class="node">
<title>SharedModule</title>
<polygon fill="#8dd3c7" stroke="#000000" points="221.4231,-187 218.4231,-191 197.4231,-191 194.4231,-187 122.5769,-187 122.5769,-151 221.4231,-151 221.4231,-187"/>
<text text-anchor="middle" x="172" y="-164.8" font-family="Times,serif" font-size="14.00" fill="#000000">SharedModule</text>
</g>
<!-- DropzoneComponent&#45;&gt;SharedModule -->
<g id="edge1" class="edge">
<title>DropzoneComponent&#45;&gt;SharedModule</title>
<path fill="none" stroke="#000000" d="M327.7548,-122.0225C327.7548,-139.3734 327.7548,-163 327.7548,-163 327.7548,-163 231.2818,-163 231.2818,-163"/>
<polygon fill="#000000" stroke="#000000" points="231.2818,-159.5001 221.2818,-163 231.2818,-166.5001 231.2818,-159.5001"/>
</g>
<!-- HighlightPipe -->
<g id="node2" class="node">
<title>HighlightPipe</title>
<polygon fill="#ffffb3" stroke="#000000" points="218.0578,-122 123.9422,-122 123.9422,-86 218.0578,-86 218.0578,-122"/>
<text text-anchor="middle" x="171" y="-99.8" font-family="Times,serif" font-size="14.00" fill="#000000">HighlightPipe</text>
</g>
<!-- HighlightPipe&#45;&gt;SharedModule -->
<g id="edge2" class="edge">
<title>HighlightPipe&#45;&gt;SharedModule</title>
<path fill="none" stroke="#000000" d="M171,-122.1061C171,-122.1061 171,-140.991 171,-140.991"/>
<polygon fill="#000000" stroke="#000000" points="167.5001,-140.9909 171,-150.991 174.5001,-140.991 167.5001,-140.9909"/>
</g>
<!-- DropzoneComponent  -->
<g id="node4" class="node">
<title>DropzoneComponent </title>
<polygon fill="#fb8072" stroke="#000000" points="376.0288,-252 235.9712,-252 235.9712,-216 376.0288,-216 376.0288,-252"/>
<text text-anchor="middle" x="306" y="-229.8" font-family="Times,serif" font-size="14.00" fill="#000000">DropzoneComponent </text>
</g>
<!-- SharedModule&#45;&gt;DropzoneComponent  -->
<g id="edge3" class="edge">
<title>SharedModule&#45;&gt;DropzoneComponent </title>
<path fill="none" stroke="#000000" stroke-dasharray="5,2" d="M221.3185,-175C250.6718,-175 282.2452,-175 282.2452,-175 282.2452,-175 282.2452,-205.9775 282.2452,-205.9775"/>
<polygon fill="#000000" stroke="#000000" points="278.7453,-205.9774 282.2452,-215.9775 285.7453,-205.9775 278.7453,-205.9774"/>
</g>
<!-- HighlightPipe  -->
<g id="node5" class="node">
<title>HighlightPipe </title>
<polygon fill="#fb8072" stroke="#000000" points="218.0568,-252 119.9432,-252 119.9432,-216 218.0568,-216 218.0568,-252"/>
<text text-anchor="middle" x="169" y="-229.8" font-family="Times,serif" font-size="14.00" fill="#000000">HighlightPipe </text>
</g>
<!-- SharedModule&#45;&gt;HighlightPipe  -->
<g id="edge4" class="edge">
<title>SharedModule&#45;&gt;HighlightPipe </title>
<path fill="none" stroke="#000000" stroke-dasharray="5,2" d="M170.4087,-187.1061C170.4087,-187.1061 170.4087,-205.991 170.4087,-205.991"/>
<polygon fill="#000000" stroke="#000000" points="166.9087,-205.9909 170.4087,-215.991 173.9087,-205.991 166.9087,-205.9909"/>
</g>
</g>
</svg>
