<?xml version="1.0" encoding="UTF-8" standalone="no"?>
<!DOCTYPE svg PUBLIC "-//W3C//DTD SVG 1.1//EN"
 "http://www.w3.org/Graphics/SVG/1.1/DTD/svg11.dtd">
<!-- Generated by graphviz version 2.40.1 (20161225.0304)
 -->
<!-- Title: dependencies Pages: 1 -->
<svg width="991pt" height="284pt"
 viewBox="0.00 0.00 991.00 284.00" xmlns="http://www.w3.org/2000/svg" xmlns:xlink="http://www.w3.org/1999/xlink">
<g id="graph0" class="graph" transform="scale(1 1) rotate(0) translate(4 280)">
<title>dependencies</title>
<polygon fill="#ffffff" stroke="transparent" points="-4,4 -4,-280 987,-280 987,4 -4,4"/>
<text text-anchor="start" x="470.5091" y="-42.4" font-family="sans-serif" font-weight="bold" font-size="14.00" fill="#000000">Legend</text>
<polygon fill="#ffffb3" stroke="transparent" points="257.5,-10 257.5,-30 277.5,-30 277.5,-10 257.5,-10"/>
<text text-anchor="start" x="281.129" y="-15.4" font-family="sans-serif" font-size="14.00" fill="#000000"> &#160;Declarations</text>
<polygon fill="#8dd3c7" stroke="transparent" points="370.5,-10 370.5,-30 390.5,-30 390.5,-10 370.5,-10"/>
<text text-anchor="start" x="394.2251" y="-15.4" font-family="sans-serif" font-size="14.00" fill="#000000"> &#160;Module</text>
<polygon fill="#80b1d3" stroke="transparent" points="456.5,-10 456.5,-30 476.5,-30 476.5,-10 456.5,-10"/>
<text text-anchor="start" x="480.2812" y="-15.4" font-family="sans-serif" font-size="14.00" fill="#000000"> &#160;Bootstrap</text>
<polygon fill="#fdb462" stroke="transparent" points="553.5,-10 553.5,-30 573.5,-30 573.5,-10 553.5,-10"/>
<text text-anchor="start" x="577.1732" y="-15.4" font-family="sans-serif" font-size="14.00" fill="#000000"> &#160;Providers</text>
<polygon fill="#fb8072" stroke="transparent" points="649.5,-10 649.5,-30 669.5,-30 669.5,-10 649.5,-10"/>
<text text-anchor="start" x="673.2258" y="-15.4" font-family="sans-serif" font-size="14.00" fill="#000000"> &#160;Exports</text>
<g id="clust1" class="cluster">
<title>cluster_AppModule</title>
<polygon fill="none" stroke="#000000" stroke-dasharray="1,5" points="8,-70 8,-268 975,-268 975,-70 8,-70"/>
</g>
<g id="clust2" class="cluster">
<title>cluster_AppModule_declarations</title>
<polygon fill="none" stroke="#000000" points="416,-78 416,-130 967,-130 967,-78 416,-78"/>
</g>
<g id="clust7" class="cluster">
<title>cluster_AppModule_imports</title>
<polygon fill="none" stroke="#000000" points="16,-78 16,-130 408,-130 408,-78 16,-78"/>
</g>
<g id="clust9" class="cluster">
<title>cluster_AppModule_bootstrap</title>
<polygon fill="none" stroke="#000000" points="419,-208 419,-260 543,-260 543,-208 419,-208"/>
</g>
<!-- AppComponent -->
<g id="node1" class="node">
<title>AppComponent</title>
<polygon fill="#ffffb3" stroke="#000000" points="958.9399,-122 853.0601,-122 853.0601,-86 958.9399,-86 958.9399,-122"/>
<text text-anchor="middle" x="906" y="-99.8" font-family="Times,serif" font-size="14.00" fill="#000000">AppComponent</text>
</g>
<!-- AppModule -->
<g id="node5" class="node">
<title>AppModule</title>
<polygon fill="#8dd3c7" stroke="#000000" points="522.6571,-187 519.6571,-191 498.6571,-191 495.6571,-187 439.3429,-187 439.3429,-151 522.6571,-151 522.6571,-187"/>
<text text-anchor="middle" x="481" y="-164.8" font-family="Times,serif" font-size="14.00" fill="#000000">AppModule</text>
</g>
<!-- AppComponent&#45;&gt;AppModule -->
<g id="edge1" class="edge">
<title>AppComponent&#45;&gt;AppModule</title>
<path fill="none" stroke="#000000" d="M906,-122.2921C906,-144.2057 906,-178 906,-178 906,-178 532.9138,-178 532.9138,-178"/>
<polygon fill="#000000" stroke="#000000" points="532.9138,-174.5001 522.9138,-178 532.9137,-181.5001 532.9138,-174.5001"/>
</g>
<!-- EntriesComponent -->
<g id="node2" class="node">
<title>EntriesComponent</title>
<polygon fill="#ffffb3" stroke="#000000" points="835.486,-122 714.514,-122 714.514,-86 835.486,-86 835.486,-122"/>
<text text-anchor="middle" x="775" y="-99.8" font-family="Times,serif" font-size="14.00" fill="#000000">EntriesComponent</text>
</g>
<!-- EntriesComponent&#45;&gt;AppModule -->
<g id="edge2" class="edge">
<title>EntriesComponent&#45;&gt;AppModule</title>
<path fill="none" stroke="#000000" d="M775,-122.1061C775,-141.3391 775,-169 775,-169 775,-169 532.8108,-169 532.8108,-169"/>
<polygon fill="#000000" stroke="#000000" points="532.8108,-165.5001 522.8108,-169 532.8108,-172.5001 532.8108,-165.5001"/>
</g>
<!-- PaginationComponent -->
<g id="node3" class="node">
<title>PaginationComponent</title>
<polygon fill="#ffffb3" stroke="#000000" points="696.7162,-122 555.2838,-122 555.2838,-86 696.7162,-86 696.7162,-122"/>
<text text-anchor="middle" x="626" y="-99.8" font-family="Times,serif" font-size="14.00" fill="#000000">PaginationComponent</text>
</g>
<!-- PaginationComponent&#45;&gt;AppModule -->
<g id="edge3" class="edge">
<title>PaginationComponent&#45;&gt;AppModule</title>
<path fill="none" stroke="#000000" d="M626,-122.027C626,-138.3976 626,-160 626,-160 626,-160 532.94,-160 532.94,-160"/>
<polygon fill="#000000" stroke="#000000" points="532.94,-156.5001 522.94,-160 532.94,-163.5001 532.94,-156.5001"/>
</g>
<!-- TableComponent -->
<g id="node4" class="node">
<title>TableComponent</title>
<polygon fill="#ffffb3" stroke="#000000" points="537.705,-122 424.295,-122 424.295,-86 537.705,-86 537.705,-122"/>
<text text-anchor="middle" x="481" y="-99.8" font-family="Times,serif" font-size="14.00" fill="#000000">TableComponent</text>
</g>
<!-- TableComponent&#45;&gt;AppModule -->
<g id="edge4" class="edge">
<title>TableComponent&#45;&gt;AppModule</title>
<path fill="none" stroke="#000000" d="M481,-122.1061C481,-122.1061 481,-140.991 481,-140.991"/>
<polygon fill="#000000" stroke="#000000" points="477.5001,-140.9909 481,-150.991 484.5001,-140.991 477.5001,-140.9909"/>
</g>
<!-- AppComponent  -->
<g id="node9" class="node">
<title>AppComponent </title>
<polygon fill="#80b1d3" stroke="#000000" points="535.439,-252 426.561,-252 426.561,-216 535.439,-216 535.439,-252"/>
<text text-anchor="middle" x="481" y="-229.8" font-family="Times,serif" font-size="14.00" fill="#000000">AppComponent </text>
</g>
<!-- AppModule&#45;&gt;AppComponent  -->
<g id="edge8" class="edge">
<title>AppModule&#45;&gt;AppComponent </title>
<path fill="none" stroke="#000000" stroke-dasharray="1,5" d="M481,-187.1061C481,-187.1061 481,-205.991 481,-205.991"/>
<polygon fill="#000000" stroke="#000000" points="477.5001,-205.9909 481,-215.991 484.5001,-205.991 477.5001,-205.9909"/>
</g>
<!-- AppRoutingModule -->
<g id="node6" class="node">
<title>AppRoutingModule</title>
<polygon fill="#8dd3c7" stroke="#000000" points="400.2744,-122 397.2744,-126 376.2744,-126 373.2744,-122 271.7256,-122 271.7256,-86 400.2744,-86 400.2744,-122"/>
<text text-anchor="middle" x="336" y="-99.8" font-family="Times,serif" font-size="14.00" fill="#000000">AppRoutingModule</text>
</g>
<!-- AppRoutingModule&#45;&gt;AppModule -->
<g id="edge5" class="edge">
<title>AppRoutingModule&#45;&gt;AppModule</title>
<path fill="none" stroke="#000000" d="M336,-122.027C336,-138.3976 336,-160 336,-160 336,-160 429.06,-160 429.06,-160"/>
<polygon fill="#000000" stroke="#000000" points="429.06,-163.5001 439.06,-160 429.06,-156.5001 429.06,-163.5001"/>
</g>
<!-- AppStoreModule -->
<g id="node7" class="node">
<title>AppStoreModule</title>
<polygon fill="#8dd3c7" stroke="#000000" points="253.705,-122 250.705,-126 229.705,-126 226.705,-122 140.295,-122 140.295,-86 253.705,-86 253.705,-122"/>
<text text-anchor="middle" x="197" y="-99.8" font-family="Times,serif" font-size="14.00" fill="#000000">AppStoreModule</text>
</g>
<!-- AppStoreModule&#45;&gt;AppModule -->
<g id="edge6" class="edge">
<title>AppStoreModule&#45;&gt;AppModule</title>
<path fill="none" stroke="#000000" d="M197,-122.1061C197,-141.3391 197,-169 197,-169 197,-169 429.0948,-169 429.0948,-169"/>
<polygon fill="#000000" stroke="#000000" points="429.0949,-172.5001 439.0948,-169 429.0948,-165.5001 429.0949,-172.5001"/>
</g>
<!-- SharedModule -->
<g id="node8" class="node">
<title>SharedModule</title>
<polygon fill="#8dd3c7" stroke="#000000" points="122.4231,-122 119.4231,-126 98.4231,-126 95.4231,-122 23.5769,-122 23.5769,-86 122.4231,-86 122.4231,-122"/>
<text text-anchor="middle" x="73" y="-99.8" font-family="Times,serif" font-size="14.00" fill="#000000">SharedModule</text>
</g>
<!-- SharedModule&#45;&gt;AppModule -->
<g id="edge7" class="edge">
<title>SharedModule&#45;&gt;AppModule</title>
<path fill="none" stroke="#000000" d="M73,-122.2921C73,-144.2057 73,-178 73,-178 73,-178 429.2542,-178 429.2542,-178"/>
<polygon fill="#000000" stroke="#000000" points="429.2543,-181.5001 439.2542,-178 429.2542,-174.5001 429.2543,-181.5001"/>
</g>
</g>
</svg>
