<?xml version="1.0" encoding="UTF-8" standalone="no"?>
<!DOCTYPE svg PUBLIC "-//W3C//DTD SVG 1.1//EN"
 "http://www.w3.org/Graphics/SVG/1.1/DTD/svg11.dtd">
<!-- Generated by graphviz version 2.40.1 (20161225.0304)
 -->
<!-- Title: dependencies Pages: 1 -->
<svg width="1561pt" height="290pt"
 viewBox="0.00 0.00 1561.00 290.00" xmlns="http://www.w3.org/2000/svg" xmlns:xlink="http://www.w3.org/1999/xlink">
<g id="graph0" class="graph" transform="scale(1 1) rotate(0) translate(4 286)">
<title>dependencies</title>
<polygon fill="#ffffff" stroke="transparent" points="-4,4 -4,-286 1557,-286 1557,4 -4,4"/>
<text text-anchor="start" x="755.5091" y="-42.4" font-family="sans-serif" font-weight="bold" font-size="14.00" fill="#000000">Legend</text>
<polygon fill="#ffffb3" stroke="transparent" points="542.5,-10 542.5,-30 562.5,-30 562.5,-10 542.5,-10"/>
<text text-anchor="start" x="566.129" y="-15.4" font-family="sans-serif" font-size="14.00" fill="#000000"> &#160;Declarations</text>
<polygon fill="#8dd3c7" stroke="transparent" points="655.5,-10 655.5,-30 675.5,-30 675.5,-10 655.5,-10"/>
<text text-anchor="start" x="679.2251" y="-15.4" font-family="sans-serif" font-size="14.00" fill="#000000"> &#160;Module</text>
<polygon fill="#80b1d3" stroke="transparent" points="741.5,-10 741.5,-30 761.5,-30 761.5,-10 741.5,-10"/>
<text text-anchor="start" x="765.2812" y="-15.4" font-family="sans-serif" font-size="14.00" fill="#000000"> &#160;Bootstrap</text>
<polygon fill="#fdb462" stroke="transparent" points="838.5,-10 838.5,-30 858.5,-30 858.5,-10 838.5,-10"/>
<text text-anchor="start" x="862.1732" y="-15.4" font-family="sans-serif" font-size="14.00" fill="#000000"> &#160;Providers</text>
<polygon fill="#fb8072" stroke="transparent" points="934.5,-10 934.5,-30 954.5,-30 954.5,-10 934.5,-10"/>
<text text-anchor="start" x="958.2258" y="-15.4" font-family="sans-serif" font-size="14.00" fill="#000000"> &#160;Exports</text>
<g id="clust1" class="cluster">
<title>cluster_AppModule</title>
<polygon fill="none" stroke="#000000" stroke-dasharray="1,5" points="8,-70 8,-274 976,-274 976,-70 8,-70"/>
</g>
<g id="clust2" class="cluster">
<title>cluster_AppModule_declarations</title>
<polygon fill="none" stroke="#000000" points="16,-78 16,-130 567,-130 567,-78 16,-78"/>
</g>
<g id="clust7" class="cluster">
<title>cluster_AppModule_imports</title>
<polygon fill="none" stroke="#000000" points="575,-78 575,-130 968,-130 968,-78 575,-78"/>
</g>
<g id="clust9" class="cluster">
<title>cluster_AppModule_bootstrap</title>
<polygon fill="none" stroke="#000000" points="444,-214 444,-266 568,-266 568,-214 444,-214"/>
</g>
<g id="clust23" class="cluster">
<title>cluster_SharedModule</title>
<polygon fill="none" stroke="#000000" stroke-dasharray="1,5" points="984,-138 984,-206 1545,-206 1545,-138 984,-138"/>
</g>
<g id="clust24" class="cluster">
<title>cluster_SharedModule_declarations</title>
<polygon fill="none" stroke="#000000" points="1272,-146 1272,-198 1537,-198 1537,-146 1272,-146"/>
</g>
<g id="clust28" class="cluster">
<title>cluster_SharedModule_exports</title>
<polygon fill="none" stroke="#000000" points="992,-146 992,-198 1264,-198 1264,-146 992,-146"/>
</g>
<!-- AppComponent -->
<g id="node1" class="node">
<title>AppComponent</title>
<polygon fill="#ffffb3" stroke="#000000" points="558.9399,-122 453.0601,-122 453.0601,-86 558.9399,-86 558.9399,-122"/>
<text text-anchor="middle" x="506" y="-99.8" font-family="Times,serif" font-size="14.00" fill="#000000">AppComponent</text>
</g>
<!-- AppModule -->
<g id="node5" class="node">
<title>AppModule</title>
<polygon fill="#8dd3c7" stroke="#000000" points="547.6571,-190 544.6571,-194 523.6571,-194 520.6571,-190 464.3429,-190 464.3429,-154 547.6571,-154 547.6571,-190"/>
<text text-anchor="middle" x="506" y="-167.8" font-family="Times,serif" font-size="14.00" fill="#000000">AppModule</text>
</g>
<!-- AppComponent&#45;&gt;AppModule -->
<g id="edge1" class="edge">
<title>AppComponent&#45;&gt;AppModule</title>
<path fill="none" stroke="#000000" d="M506,-122.2228C506,-122.2228 506,-143.7269 506,-143.7269"/>
<polygon fill="#000000" stroke="#000000" points="502.5001,-143.7269 506,-153.7269 509.5001,-143.727 502.5001,-143.7269"/>
</g>
<!-- EntriesComponent -->
<g id="node2" class="node">
<title>EntriesComponent</title>
<polygon fill="#ffffb3" stroke="#000000" points="435.486,-122 314.514,-122 314.514,-86 435.486,-86 435.486,-122"/>
<text text-anchor="middle" x="375" y="-99.8" font-family="Times,serif" font-size="14.00" fill="#000000">EntriesComponent</text>
</g>
<!-- EntriesComponent&#45;&gt;AppModule -->
<g id="edge2" class="edge">
<title>EntriesComponent&#45;&gt;AppModule</title>
<path fill="none" stroke="#000000" d="M375,-122.0225C375,-139.3734 375,-163 375,-163 375,-163 454.1906,-163 454.1906,-163"/>
<polygon fill="#000000" stroke="#000000" points="454.1906,-166.5001 464.1906,-163 454.1906,-159.5001 454.1906,-166.5001"/>
</g>
<!-- PaginationComponent -->
<g id="node3" class="node">
<title>PaginationComponent</title>
<polygon fill="#ffffb3" stroke="#000000" points="296.7162,-122 155.2838,-122 155.2838,-86 296.7162,-86 296.7162,-122"/>
<text text-anchor="middle" x="226" y="-99.8" font-family="Times,serif" font-size="14.00" fill="#000000">PaginationComponent</text>
</g>
<!-- PaginationComponent&#45;&gt;AppModule -->
<g id="edge3" class="edge">
<title>PaginationComponent&#45;&gt;AppModule</title>
<path fill="none" stroke="#000000" d="M226,-122.2228C226,-142.3652 226,-172 226,-172 226,-172 454.0812,-172 454.0812,-172"/>
<polygon fill="#000000" stroke="#000000" points="454.0812,-175.5001 464.0812,-172 454.0811,-168.5001 454.0812,-175.5001"/>
</g>
<!-- TableComponent -->
<g id="node4" class="node">
<title>TableComponent</title>
<polygon fill="#ffffb3" stroke="#000000" points="137.705,-122 24.295,-122 24.295,-86 137.705,-86 137.705,-122"/>
<text text-anchor="middle" x="81" y="-99.8" font-family="Times,serif" font-size="14.00" fill="#000000">TableComponent</text>
</g>
<!-- TableComponent&#45;&gt;AppModule -->
<g id="edge4" class="edge">
<title>TableComponent&#45;&gt;AppModule</title>
<path fill="none" stroke="#000000" d="M81,-122.2479C81,-145.0179 81,-181 81,-181 81,-181 454.0862,-181 454.0862,-181"/>
<polygon fill="#000000" stroke="#000000" points="454.0863,-184.5001 464.0862,-181 454.0862,-177.5001 454.0863,-184.5001"/>
</g>
<!-- AppComponent  -->
<g id="node9" class="node">
<title>AppComponent </title>
<polygon fill="#80b1d3" stroke="#000000" points="560.439,-258 451.561,-258 451.561,-222 560.439,-222 560.439,-258"/>
<text text-anchor="middle" x="506" y="-235.8" font-family="Times,serif" font-size="14.00" fill="#000000">AppComponent </text>
</g>
<!-- AppModule&#45;&gt;AppComponent  -->
<g id="edge8" class="edge">
<title>AppModule&#45;&gt;AppComponent </title>
<path fill="none" stroke="#000000" stroke-dasharray="1,5" d="M506,-190.2228C506,-190.2228 506,-211.7269 506,-211.7269"/>
<polygon fill="#000000" stroke="#000000" points="502.5001,-211.7269 506,-221.7269 509.5001,-211.727 502.5001,-211.7269"/>
</g>
<!-- AppRoutingModule -->
<g id="node6" class="node">
<title>AppRoutingModule</title>
<polygon fill="#8dd3c7" stroke="#000000" points="843.2744,-122 840.2744,-126 819.2744,-126 816.2744,-122 714.7256,-122 714.7256,-86 843.2744,-86 843.2744,-122"/>
<text text-anchor="middle" x="779" y="-99.8" font-family="Times,serif" font-size="14.00" fill="#000000">AppRoutingModule</text>
</g>
<!-- AppRoutingModule&#45;&gt;AppModule -->
<g id="edge5" class="edge">
<title>AppRoutingModule&#45;&gt;AppModule</title>
<path fill="none" stroke="#000000" d="M779,-122.2228C779,-142.3652 779,-172 779,-172 779,-172 557.76,-172 557.76,-172"/>
<polygon fill="#000000" stroke="#000000" points="557.76,-168.5001 547.76,-172 557.76,-175.5001 557.76,-168.5001"/>
</g>
<!-- AppStoreModule -->
<g id="node7" class="node">
<title>AppStoreModule</title>
<polygon fill="#8dd3c7" stroke="#000000" points="696.705,-122 693.705,-126 672.705,-126 669.705,-122 583.295,-122 583.295,-86 696.705,-86 696.705,-122"/>
<text text-anchor="middle" x="640" y="-99.8" font-family="Times,serif" font-size="14.00" fill="#000000">AppStoreModule</text>
</g>
<!-- AppStoreModule&#45;&gt;AppModule -->
<g id="edge6" class="edge">
<title>AppStoreModule&#45;&gt;AppModule</title>
<path fill="none" stroke="#000000" d="M640,-122.0225C640,-139.3734 640,-163 640,-163 640,-163 557.6639,-163 557.6639,-163"/>
<polygon fill="#000000" stroke="#000000" points="557.6639,-159.5001 547.6639,-163 557.6639,-166.5001 557.6639,-159.5001"/>
</g>
<!-- SharedModule -->
<g id="node8" class="node">
<title>SharedModule</title>
<polygon fill="#8dd3c7" stroke="#000000" points="960.4231,-122 957.4231,-126 936.4231,-126 933.4231,-122 861.5769,-122 861.5769,-86 960.4231,-86 960.4231,-122"/>
<text text-anchor="middle" x="911" y="-99.8" font-family="Times,serif" font-size="14.00" fill="#000000">SharedModule</text>
</g>
<!-- SharedModule&#45;&gt;AppModule -->
<g id="edge7" class="edge">
<title>SharedModule&#45;&gt;AppModule</title>
<path fill="none" stroke="#000000" d="M911,-122.2479C911,-145.0179 911,-181 911,-181 911,-181 557.8167,-181 557.8167,-181"/>
<polygon fill="#000000" stroke="#000000" points="557.8167,-177.5001 547.8167,-181 557.8167,-184.5001 557.8167,-177.5001"/>
</g>
<!-- DropzoneComponent  -->
<g id="node12" class="node">
<title>DropzoneComponent </title>
<polygon fill="#fb8072" stroke="#000000" points="1256.0288,-190 1115.9712,-190 1115.9712,-154 1256.0288,-154 1256.0288,-190"/>
<text text-anchor="middle" x="1186" y="-167.8" font-family="Times,serif" font-size="14.00" fill="#000000">DropzoneComponent </text>
</g>
<!-- SharedModule&#45;&gt;DropzoneComponent  -->
<g id="edge11" class="edge">
<title>SharedModule&#45;&gt;DropzoneComponent </title>
<path fill="none" stroke="#000000" stroke-dasharray="5,2" d="M960.4821,-108C1039.6563,-108 1186,-108 1186,-108 1186,-108 1186,-143.8314 1186,-143.8314"/>
<polygon fill="#000000" stroke="#000000" points="1182.5001,-143.8313 1186,-153.8314 1189.5001,-143.8314 1182.5001,-143.8313"/>
</g>
<!-- HighlightPipe  -->
<g id="node13" class="node">
<title>HighlightPipe </title>
<polygon fill="#fb8072" stroke="#000000" points="1098.0568,-190 999.9432,-190 999.9432,-154 1098.0568,-154 1098.0568,-190"/>
<text text-anchor="middle" x="1049" y="-167.8" font-family="Times,serif" font-size="14.00" fill="#000000">HighlightPipe </text>
</g>
<!-- SharedModule&#45;&gt;HighlightPipe  -->
<g id="edge12" class="edge">
<title>SharedModule&#45;&gt;HighlightPipe </title>
<path fill="none" stroke="#000000" stroke-dasharray="5,2" d="M960.4314,-115C1000.029,-115 1049,-115 1049,-115 1049,-115 1049,-143.9648 1049,-143.9648"/>
<polygon fill="#000000" stroke="#000000" points="1045.5001,-143.9648 1049,-153.9648 1052.5001,-143.9649 1045.5001,-143.9648"/>
</g>
<!-- DropzoneComponent -->
<g id="node10" class="node">
<title>DropzoneComponent</title>
<polygon fill="#ffffb3" stroke="#000000" points="1529.0296,-190 1392.9704,-190 1392.9704,-154 1529.0296,-154 1529.0296,-190"/>
<text text-anchor="middle" x="1461" y="-167.8" font-family="Times,serif" font-size="14.00" fill="#000000">DropzoneComponent</text>
</g>
<!-- DropzoneComponent&#45;&gt;SharedModule -->
<g id="edge9" class="edge">
<title>DropzoneComponent&#45;&gt;SharedModule</title>
<path fill="none" stroke="#000000" d="M1461,-153.9092C1461,-130.8672 1461,-94 1461,-94 1461,-94 970.2929,-94 970.2929,-94"/>
<polygon fill="#000000" stroke="#000000" points="970.2929,-90.5001 960.2929,-94 970.2928,-97.5001 970.2929,-90.5001"/>
</g>
<!-- HighlightPipe -->
<g id="node11" class="node">
<title>HighlightPipe</title>
<polygon fill="#ffffb3" stroke="#000000" points="1374.0578,-190 1279.9422,-190 1279.9422,-154 1374.0578,-154 1374.0578,-190"/>
<text text-anchor="middle" x="1327" y="-167.8" font-family="Times,serif" font-size="14.00" fill="#000000">HighlightPipe</text>
</g>
<!-- HighlightPipe&#45;&gt;SharedModule -->
<g id="edge10" class="edge">
<title>HighlightPipe&#45;&gt;SharedModule</title>
<path fill="none" stroke="#000000" d="M1327,-153.7157C1327,-132.6789 1327,-101 1327,-101 1327,-101 970.3543,-101 970.3543,-101"/>
<polygon fill="#000000" stroke="#000000" points="970.3543,-97.5001 960.3543,-101 970.3542,-104.5001 970.3543,-97.5001"/>
</g>
</g>
</svg>
